<svg width="14" height="9" viewBox="0 0 14 9" fill="none" xmlns="http://www.w3.org/2000/svg">
<path fill-rule="evenodd" clip-rule="evenodd" d="M11.9998 0.249939C11.6498 0.249939 11.3373 0.387439 11.1123 0.612439L5.74976 5.98744L2.88726 3.11244C2.66226 2.88744 2.34976 2.74994 1.99976 2.74994C1.31226 2.74994 0.749756 3.31244 0.749756 3.99994C0.749756 4.34994 0.887256 4.66244 1.11226 4.88744L4.86226 8.63744C5.08726 8.86244 5.39976 8.99994 5.74976 8.99994C6.09976 8.99994 6.41226 8.86244 6.63726 8.63744L12.8873 2.38744C13.1123 2.16244 13.2498 1.84994 13.2498 1.49994C13.2498 0.812439 12.6873 0.249939 11.9998 0.249939Z" fill="white"/>
</svg>

