<svg width="512" height="400" viewBox="0 0 512 400" xmlns="http://www.w3.org/2000/svg" xmlns:xlink="http://www.w3.org/1999/xlink"><svg width="26" height="26" viewBox="-1 -1 26 26" id="i-alfa_click-24" x="278" y="349" xmlns="http://www.w3.org/2000/svg"><title>icons/pay/24/i-alfa_click-24</title><g fill="none" fill-rule="evenodd"><circle stroke="#232323" cx="12" cy="12" r="11.5"/><path d="M8.498 15H7.42l4.368-9.856h.966L17.136 15h-1.092l-1.218-2.702H9.688L8.498 15zm3.766-8.554l-2.226 4.942h4.452l-2.226-4.942z" fill="#232323"/><path d="M7.5 17.5h9" stroke="#232323" stroke-linecap="square"/></g></svg><svg width="51" height="51" viewBox="-1 -1 51 51" id="i-arrow_down-48-black" x="51" y="349" xmlns="http://www.w3.org/2000/svg"><title>icons/navigation/48/i-arrow_down-48-black</title><path d="M33.864 19.199l-9.36 9.224-9.367-9.23a.668.668 0 0 0-.471-.193c-.17 0-.341.064-.471.192a.65.65 0 0 0 0 .928l9.826 9.682a.752.752 0 0 0 .248.155.676.676 0 0 0 .71-.149l9.826-9.682a.65.65 0 0 0 0-.927.673.673 0 0 0-.941 0z" fill-rule="nonzero" fill="#232323"/></svg><svg width="51" height="51" viewBox="-1 -1 51 51" id="i-arrow_down-48-white" y="349" xmlns="http://www.w3.org/2000/svg"><title>icons/navigation/48/i-arrow_down-48-black</title><path d="M33.864 19.199l-9.36 9.224-9.367-9.23a.668.668 0 0 0-.471-.193c-.17 0-.341.064-.471.192a.65.65 0 0 0 0 .928l9.826 9.682a.752.752 0 0 0 .248.155.676.676 0 0 0 .71-.149l9.826-9.682a.65.65 0 0 0 0-.927.673.673 0 0 0-.941 0z" fill-rule="nonzero" fill="#fff"/></svg><svg width="50" height="50" viewBox="-1 -1 50 50" id="i-arrow_left-48-black" x="202" y="349" xmlns="http://www.w3.org/2000/svg"><title>icons/navigation/48/i-arrow_left-48-black</title><path d="M29.479 33.56l-9.036-9.169 9.042-9.176a.655.655 0 0 0 .188-.461.654.654 0 0 0-.188-.461.636.636 0 0 0-.908 0l-9.485 9.625a.737.737 0 0 0-.152.243.662.662 0 0 0 .146.696l9.484 9.626a.636.636 0 0 0 .909 0 .66.66 0 0 0 0-.923z" fill-rule="nonzero" fill="#232323"/></svg><svg width="74" height="74" viewBox="-1 -1 74 74" id="i-arrow_left-72-black" x="394" y="266" xmlns="http://www.w3.org/2000/svg"><title>icons/navigation/72/i-arrow_left-72-black</title><path d="M43.79 49.759L30.236 36.005 43.8 22.24a.982.982 0 0 0 .283-.692c0-.25-.094-.5-.283-.691a.954.954 0 0 0-1.363 0L28.21 35.296c-.096.096-.18.238-.228.364a.993.993 0 0 0 .218 1.044l14.227 14.438a.954.954 0 0 0 1.363 0 .989.989 0 0 0 0-1.383z" fill-rule="nonzero" fill="#232323"/></svg><svg width="74" height="74" viewBox="-1 -1 74 74" id="i-arrow_left-72-white" x="394" y="192" xmlns="http://www.w3.org/2000/svg"><title>icons/navigation/72/i-arrow_left-72-white</title><path d="M43.79 49.759L30.236 36.005 43.8 22.24a.982.982 0 0 0 .283-.692c0-.25-.094-.5-.283-.691a.954.954 0 0 0-1.363 0L28.21 35.296c-.096.096-.18.238-.228.364a.993.993 0 0 0 .218 1.044l14.227 14.438a.954.954 0 0 0 1.363 0 .989.989 0 0 0 0-1.383z" fill-rule="nonzero" fill="#fff"/></svg><svg width="50" height="50" viewBox="-1 -1 50 50" id="i-arrow_right-48-black" x="102" y="349" xmlns="http://www.w3.org/2000/svg"><title>icons/navigation/48/i-arrow_right-48-black</title><path d="M19.093 33.56l9.035-9.169-9.042-9.176a.655.655 0 0 1-.188-.461c0-.167.062-.334.188-.461a.636.636 0 0 1 .909 0l9.484 9.625c.064.065.12.159.152.243.09.241.034.513-.145.696L20 34.483a.636.636 0 0 1-.908 0 .66.66 0 0 1 0-.923z" fill-rule="nonzero" fill="#232323"/></svg><svg width="74" height="74" viewBox="-1 -1 74 74" id="i-arrow_right-72-black" x="394" y="118" xmlns="http://www.w3.org/2000/svg"><title>icons/navigation/72/i-arrow_right-72-black</title><path d="M28.21 49.759l13.554-13.754L28.2 22.24a.982.982 0 0 1-.283-.692c0-.25.094-.5.283-.691a.954.954 0 0 1 1.363 0L43.79 35.296c.096.096.18.238.228.364a.993.993 0 0 1-.218 1.044L29.573 51.142a.954.954 0 0 1-1.363 0 .989.989 0 0 1 0-1.383z" fill-rule="nonzero" fill="#232323"/></svg><svg width="74" height="74" viewBox="-1 -1 74 74" id="i-arrow_right-72-white" x="282" y="197" xmlns="http://www.w3.org/2000/svg"><title>icons/navigation/72/i-arrow_right-72-black</title><path d="M28.21 49.759l13.554-13.754L28.2 22.24a.982.982 0 0 1-.283-.692c0-.25.094-.5.283-.691a.954.954 0 0 1 1.363 0L43.79 35.296c.096.096.18.238.228.364a.993.993 0 0 1-.218 1.044L29.573 51.142a.954.954 0 0 1-1.363 0 .989.989 0 0 1 0-1.383z" fill-rule="nonzero" fill="#fff"/></svg><svg width="26" height="26" viewBox="-1 -1 26 26" id="i-bitcoin-24" x="268" y="315" xmlns="http://www.w3.org/2000/svg"><title>icons/pay/24/i-bitcoin-24</title><g fill="#232323"><path d="M20.485 3.515A11.917 11.917 0 0 0 12 0C8.795 0 5.78 1.248 3.515 3.515A11.917 11.917 0 0 0 0 12c0 3.205 1.248 6.22 3.515 8.485A11.917 11.917 0 0 0 12 24c3.205 0 6.22-1.248 8.485-3.515A11.917 11.917 0 0 0 24 12c0-3.205-1.248-6.22-3.515-8.485zm-.53 16.44c-2.126 2.123-4.95 3.293-7.955 3.293s-5.83-1.17-7.954-3.294A11.177 11.177 0 0 1 .752 12c0-3.005 1.17-5.83 3.294-7.954A11.177 11.177 0 0 1 12 .752c3.005 0 5.83 1.17 7.954 3.294A11.179 11.179 0 0 1 23.248 12c0 3.005-1.17 5.83-3.294 7.954z"/><path d="M12 2C6.486 2 2 6.486 2 12s4.486 10 10 10 10-4.486 10-10S17.514 2 12 2zm0 19.248c-5.1 0-9.248-4.15-9.248-9.248 0-5.1 4.15-9.248 9.248-9.248 5.1 0 9.248 4.15 9.248 9.248 0 5.1-4.15 9.248-9.248 9.248z"/><path d="M14.305 11.446a2.382 2.382 0 0 0-1.5-4.241h-.428v-.828a.378.378 0 0 0-.754 0v.828h-.856v-.828a.378.378 0 0 0-.754 0v.828H8.377a.377.377 0 0 0 0 .753h.428v8.084h-.428a.376.376 0 1 0 0 .753h1.636v.828a.378.378 0 0 0 .754 0v-.828h.856v.828a.378.378 0 0 0 .754 0v-.828h.83c1.54 0 2.793-1.25 2.793-2.787 0-1.148-.7-2.136-1.695-2.562zM9.56 7.958h3.245c.902 0 1.635.732 1.635 1.632 0 .9-.733 1.632-1.635 1.632H9.56V7.958zm3.648 8.084H9.56v-4.067h3.648c1.123 0 2.037.912 2.037 2.033a2.038 2.038 0 0 1-2.037 2.034z"/></g></svg><svg width="26" height="26" viewBox="-1 -1 26 26" id="i-calendar-24" x="346" y="315" xmlns="http://www.w3.org/2000/svg"><title>icons/collection/24/i-calendar-24</title><g opacity=".6"><path d="M22.12 2.118h-3.854V.623c0-.256.196-.798-.378-.798-.574 0-.37.415-.37.67V2.12H5.95V.496c0-.256.208-.65-.28-.67-.49-.02-.392.414-.392.67v1.622H1.407c-.675 0-1.523.308-1.523.988v18.72c0 .68.94 1.727 1.615 1.727h20.876c.675 0 1.228-1.046 1.228-1.726V3.107c0-.68-.808-.99-1.483-.99zm.738 19.71c0 .166-.316.998-.482.998H1.5c-.167 0-.824-.832-.824-1V7.41h22.182v14.42zM.65 6.69V3.106c0-.168.683-.31.85-.31l3.764.112v1.607c0 .256-.057.63.39.63.445 0 .35-.47.35-.726V2.907h11.49v1.51c0 .257.03.728.412.728.383 0 .383-.47.383-.727V2.907l4.086-.11c.166 0 .494.14.494.308v3.586H.65z"/><path d="M10.863 10.47H8.72c-.254 0-.46.17-.46.382 0 .21.206.383.46.383h2.143c.253 0 .46-.172.46-.383 0-.21-.207-.382-.46-.382zm4.304 0h-2.15a.463.463 0 1 0 0 .927h2.15c.254 0 .46-.208.46-.464s-.206-.463-.46-.463zm4.298 0h-2.15a.463.463 0 1 0 0 .927h2.15c.255 0 .46-.208.46-.464s-.205-.463-.46-.463zm-8.595 2.763H8.72a.463.463 0 1 0 0 .927h2.15a.463.463 0 0 0 0-.927zm4.297 0h-2.15a.463.463 0 1 0 0 .927h2.15c.254 0 .46-.208.46-.464s-.206-.463-.46-.463zm4.298 0h-2.15a.463.463 0 1 0 0 .927h2.15c.255 0 .46-.208.46-.464s-.205-.463-.46-.463zm-13.201 0h-2.15a.463.463 0 1 0 0 .927h2.15c.254 0 .46-.208.46-.464s-.206-.463-.46-.463zm4.606 2.763H8.72a.462.462 0 0 0 0 .926h2.15c.253 0 .46-.207.46-.464s-.207-.464-.46-.464zm4.297 0h-2.15a.462.462 0 0 0 0 .926h2.15c.254 0 .46-.207.46-.464s-.206-.464-.46-.464zm4.298 0h-2.15a.462.462 0 0 0 0 .926h2.15c.255 0 .46-.207.46-.464s-.205-.464-.46-.464zm-13.201 0h-2.15a.462.462 0 0 0 0 .926h2.15c.254 0 .46-.207.46-.464s-.206-.464-.46-.464zm0 2.972h-2.15c-.253 0-.46 0-.46.255 0 .256.207.463.46.463h2.15c.254 0 .46-.207.46-.463s-.206-.255-.46-.255zm4.292 0H8.413c-.254 0-.46-.038-.46.174 0 .21.206.585.46.585h2.143c.253 0 .46-.374.46-.585 0-.212-.207-.174-.46-.174zm4.304 0h-2.15c-.253 0-.46 0-.46.255 0 .256.207.504.46.504h2.15c.254 0 .46-.248.46-.504s-.206-.255-.46-.255z"/></g></svg><svg width="34" height="34" viewBox="-1 -1 34 34" id="i-calendar-32" x="468" y="266" xmlns="http://www.w3.org/2000/svg"><title>icons/collection/32/i-calendar-32</title><g opacity=".6"><path d="M29.05 2.997h-5.035V1.043C24.015.708 24.27 0 23.52 0s-.484.543-.484.877v2.12H7.926V.877c0-.334.273-.85-.366-.877-.638-.026-.51.543-.51.877v2.12H1.99c-.883 0-1.99.4-1.99 1.29v24.457C0 29.634 1.228 31 2.11 31h27.274c.882 0 1.604-1.368 1.604-2.256V4.286c0-.888-1.055-1.29-1.937-1.29zm.964 25.747c0 .22-.413 1.306-.63 1.306H2.11c-.217 0-1.075-1.087-1.075-1.306V9.907h28.98v18.837zM1 8.972V4.286c0-.22.892-.404 1.11-.404l4.92.146v2.1c0 .334-.075.824.507.824s.457-.615.457-.95V4.03h15.01v1.975c0 .334.04.95.54.95s.5-.616.5-.95V4.028l5.34-.146c.217 0 .646.185.646.404v4.686H1z"/><path d="M14.343 13.907h-2.8c-.33 0-.6.224-.6.5s.27.5.6.5h2.8c.33 0 .6-.224.6-.5s-.27-.5-.6-.5zm5.624 0H17.16a.604.604 0 0 0-.603.606c0 .334.27.606.602.606h2.807c.332 0 .6-.273.6-.607a.602.602 0 0 0-.6-.606zm5.615 0h-2.808a.603.603 0 0 0-.602.606c0 .334.27.606.602.606h2.808c.332 0 .6-.273.6-.607a.602.602 0 0 0-.6-.606zM14.35 17.516h-2.805a.604.604 0 0 0-.602.607c0 .334.27.606.602.606h2.806a.606.606 0 0 0 .603-.607.605.605 0 0 0-.602-.607zm5.617 0H17.16a.605.605 0 0 0-.603.607c0 .334.27.606.602.606h2.807c.332 0 .6-.273.6-.607a.603.603 0 0 0-.6-.607zm5.615 0h-2.808a.605.605 0 0 0-.602.607c0 .334.27.606.602.606h2.808c.332 0 .6-.273.6-.607a.603.603 0 0 0-.6-.607zm-17.246 0H5.528a.605.605 0 0 0-.602.607c0 .334.27.606.602.606h2.808c.33 0 .6-.273.6-.607a.605.605 0 0 0-.6-.607zm6.014 3.611h-2.805a.603.603 0 0 0-.602.605c0 .335.27.606.602.606h2.806c.333 0 .603-.27.603-.606a.604.604 0 0 0-.602-.605zm5.617 0H17.16a.603.603 0 0 0-.603.605c0 .335.27.606.602.606h2.807c.332 0 .6-.27.6-.606a.602.602 0 0 0-.6-.605zm5.615 0h-2.808a.603.603 0 0 0-.602.605c0 .335.27.606.602.606h2.808c.332 0 .6-.27.6-.606a.602.602 0 0 0-.6-.605zm-17.246 0H5.528a.603.603 0 0 0-.602.605c0 .335.27.606.602.606h2.808c.33 0 .6-.27.6-.606a.603.603 0 0 0-.6-.605zm0 3.883H5.528c-.332 0-.602-.002-.602.332s.27.606.602.606h2.808c.33 0 .6-.272.6-.606 0-.334-.27-.332-.6-.332zm5.606 0h-2.8c-.33 0-.6-.05-.6.226s.27.765.6.765h2.8c.33 0 .6-.488.6-.764s-.27-.226-.6-.226zm5.623 0h-2.807c-.332 0-.602-.002-.602.332s.27.66.602.66h2.807c.333 0 .602-.326.602-.66s-.27-.332-.602-.332z"/></g></svg><svg width="34" height="34" viewBox="-1 -1 34 34" id="i-call-32" x="468" y="300" xmlns="http://www.w3.org/2000/svg"><title>icons/comunication/32/i-call-32</title><g fill="#232323"><path d="M20.064 24.952c.902 0 1.628-.31 2.218-.95l.015-.014c.21-.252.448-.478.697-.72.17-.164.345-.332.51-.503.773-.804.77-1.823-.008-2.6l-2.174-2.167c-.37-.383-.814-.588-1.28-.588-.466 0-.91.2-1.29.58l-1.295 1.29c-.118-.07-.24-.128-.356-.186-.142-.073-.278-.14-.4-.216-1.18-.745-2.25-1.72-3.274-2.973-.517-.65-.86-1.198-1.103-1.757a22.5 22.5 0 0 0 .96-.935c.11-.113.22-.222.334-.336.392-.39.6-.843.6-1.304 0-.46-.208-.91-.6-1.304L12.54 9.195c-.126-.125-.25-.25-.37-.373-.24-.245-.49-.497-.735-.723-.37-.37-.81-.563-1.272-.563-.462 0-.906.194-1.29.563L7.514 9.448c-.49.49-.77 1.088-.832 1.778-.07.862.088 1.78.502 2.89.634 1.713 1.59 3.3 3.01 5a18.483 18.483 0 0 0 6.17 4.81c.9.427 2.107.928 3.45 1.015.084.01.168.012.25.012zm-9.18-6.41c-1.348-1.618-2.258-3.126-2.856-4.74-.37-.994-.51-1.768-.45-2.503.04-.48.227-.88.57-1.22l1.347-1.34c.21-.202.44-.308.664-.308.22 0 .44.103.648.31.242.227.473.46.715.71.125.127.25.255.378.38l1.08 1.073c.223.223.336.45.336.668 0 .22-.113.446-.337.67-.115.112-.228.225-.338.338-.334.34-.653.66-.998.97l-.018.018c-.3.3-.257.588-.184.807.004.01.008.018.01.03.28.667.67 1.303 1.27 2.06 1.09 1.332 2.23 2.37 3.49 3.166.16.1.32.183.482.26.143.073.278.14.4.216.014.007.025.014.04.02.12.06.235.09.352.09.293 0 .48-.187.543-.25l1.352-1.347c.21-.21.436-.32.656-.32.275 0 .495.17.638.32l2.182 2.172c.433.43.43.895-.01 1.352-.155.16-.313.314-.48.478-.254.245-.518.497-.757.782-.413.445-.908.654-1.55.654-.062 0-.128-.004-.19-.008-1.19-.076-2.292-.537-3.118-.93a17.629 17.629 0 0 1-5.867-4.578z"/><path d="M17.582 8.834a.466.466 0 0 0-.466.466v4.737c0 .258.208.466.466.466h4.737a.466.466 0 0 0-.001-.932h-3.617l6.113-6.11a.464.464 0 1 0-.656-.657l-6.112 6.113V9.3a.467.467 0 0 0-.466-.466z"/></g></svg><svg width="50" height="50" viewBox="-1 -1 50 50" id="i-close-48-black" x="152" y="349" xmlns="http://www.w3.org/2000/svg"><title>icons/navigation/48/i-close-48-black</title><path d="M23.449 23.704L14.2 32.952a.658.658 0 1 0 .93.93l9.318-9.317 9.318 9.318a.655.655 0 0 0 .93 0 .658.658 0 0 0 0-.93l-9.248-9.249 9.254-9.255a.658.658 0 1 0-.93-.93l-9.324 9.324-9.325-9.324a.658.658 0 0 0-.93.93l9.256 9.255z" fill-rule="nonzero" fill="#1D1D1B"/></svg><svg width="26" height="26" viewBox="-1 -1 26 26" id="i-colors-24" x="294" y="315" xmlns="http://www.w3.org/2000/svg"><title>icons/collection/24/i-colors-24</title><g fill="#232323" opacity=".6"><path d="M22.085 16.085H20.36a.383.383 0 0 0 .001.766h1.342v6.384h-3.268v-5.432a.382.382 0 1 0-.765-.001v5.432H14.4V20.13a.382.382 0 1 0-.766.001v3.104h-3.268v-.774a.383.383 0 0 0-.766 0v.774H7.53c.194-.257.324-.563.368-.897l13.737-7.93c.442-.256.758-.67.89-1.164a1.897 1.897 0 0 0-.19-1.453l-2.04-3.538c-.256-.44-.67-.757-1.165-.89s-1.01-.065-1.452.19l-1.493.86a.383.383 0 1 0 .383.665l1.16-.67 3.192 5.527-2.83 1.634-2.716-4.704a.383.383 0 1 0-.663.383l2.717 4.704-2.83 1.635-1.552-2.687a.383.383 0 1 0-.663.383l1.55 2.688-2.83 1.634-.386-.67a.383.383 0 1 0-.663.383l.387.67-2.525 1.458v-.34l2.482-4.3 2.017-3.493 2.017-3.494 2.018-3.494a1.916 1.916 0 0 0-.7-2.615l-3.54-2.046a1.906 1.906 0 0 0-1.453-.19c-.495.133-.908.45-1.163.89L8.732 3.86a.383.383 0 1 0 .663.383l.67-1.16 5.53 3.19L13.96 9.1 9.255 6.386a.384.384 0 0 0-.383.664l4.704 2.715-1.634 2.83-2.687-1.552a.384.384 0 0 0-.383.664l2.687 1.55-1.635 2.83-.67-.385a.383.383 0 1 0-.383.663l.67.387-1.627 2.82V1.914A1.917 1.917 0 0 0 6 0H1.915C.86 0 0 .86 0 1.915v20.17C0 23.14.86 24 1.915 24h20.17C23.14 24 24 23.14 24 22.085V18c0-1.056-.86-1.915-1.915-1.915zm-3.66-8.003c.167-.03.34-.025.507.02.298.08.546.27.698.533l2.043 3.538a1.158 1.158 0 0 1-.123 1.32l-3.124-5.41zM10.508 2.45a1.158 1.158 0 0 1 1.32-.123l3.538 2.043c.432.25.64.74.555 1.205L10.507 2.45zM7.15 22.085c0 .634-.516 1.15-1.15 1.15H1.915c-.634 0-1.15-.516-1.15-1.15V1.915c0-.634.516-1.15 1.15-1.15H6c.634 0 1.15.516 1.15 1.15v20.17zm16.084 0c0 .5-.32.925-.766 1.083v-6.25c.446.157.766.583.766 1.082v4.085z"/><path d="M3.957 18.638c-.774 0-1.404.63-1.404 1.405 0 .774.63 1.404 1.404 1.404.775 0 1.405-.63 1.405-1.404 0-.775-.63-1.405-1.405-1.405zm0 2.043a.638.638 0 1 1 .639-.637.64.64 0 0 1-.64.638z"/></g></svg><svg width="34" height="34" viewBox="-1 -1 34 34" id="i-colors-32" x="468" y="152" xmlns="http://www.w3.org/2000/svg"><title>icons/collection/32/i-colors-32</title><g fill="#232323" opacity=".6"><path d="M29.447 21.447h-2.3a.51.51 0 0 0 0 1.02h1.79v8.512h-4.358v-7.244a.511.511 0 0 0-1.022 0v7.243H19.2v-4.14a.51.51 0 0 0-1.02 0v4.14h-4.36v-1.033a.509.509 0 1 0-1.02 0v1.032h-2.76c.26-.343.432-.752.49-1.197l18.317-10.575a2.53 2.53 0 0 0 1.187-1.55c.177-.66.087-1.35-.253-1.938L27.059 11a2.537 2.537 0 0 0-1.55-1.187 2.537 2.537 0 0 0-1.938.253l-1.99 1.148a.51.51 0 1 0 .51.884l1.55-.894 4.254 7.37-3.774 2.18-3.62-6.273a.512.512 0 0 0-.886.511l3.622 6.272-3.774 2.18-2.068-3.584a.511.511 0 0 0-.885.511l2.068 3.583-3.774 2.18-.516-.895a.51.51 0 1 0-.883.511l.516.893-3.367 1.944v-.452l3.31-5.734 2.69-4.658 2.69-4.658L21.93 8.43a2.555 2.555 0 0 0-.933-3.488L16.28 2.22a2.54 2.54 0 0 0-1.937-.254c-.66.177-1.21.6-1.55 1.187l-1.15 1.99a.511.511 0 0 0 .884.512l.894-1.548 7.37 4.255-2.177 3.775-6.273-3.62a.509.509 0 0 0-.698.186.512.512 0 0 0 .187.698l6.27 3.619-2.18 3.773-3.582-2.068a.51.51 0 0 0-.51.884l3.583 2.068-2.18 3.773-.893-.515a.511.511 0 0 0-.511.885l.893.516-2.17 3.76V2.552A2.55 2.55 0 0 0 8 0H2.553A2.556 2.556 0 0 0 0 2.553v26.894A2.556 2.556 0 0 0 2.553 32h26.894A2.556 2.556 0 0 0 32 29.447V24a2.556 2.556 0 0 0-2.553-2.553zm-4.88-10.672c.222-.04.45-.033.676.027.397.107.727.36.93.712l2.724 4.717c.204.353.257.766.15 1.163-.06.224-.168.426-.313.597l-4.166-7.215zM14.01 3.265c.17-.144.373-.252.597-.313.397-.106.81-.052 1.162.15l4.716 2.724c.577.333.855.987.74 1.607L14.01 3.266zM9.532 29.448c0 .845-.687 1.532-1.532 1.532H2.553c-.845 0-1.532-.69-1.532-1.533V2.553c0-.845.688-1.532 1.533-1.532H8c.845 0 1.532.688 1.532 1.533v26.894zm21.447 0c0 .666-.428 1.233-1.023 1.444v-8.334c.595.21 1.022.778 1.022 1.444v5.447z"/><path d="M5.276 24.85c-1.032 0-1.872.84-1.872 1.874 0 1.032.84 1.872 1.872 1.872 1.033 0 1.873-.84 1.873-1.872 0-1.033-.84-1.873-1.874-1.873zm0 2.725a.85.85 0 1 1 .001-1.701.85.85 0 0 1-.001 1.701z"/></g></svg><svg width="26" height="26" viewBox="-1 -1 26 26" id="i-credit_card-24" x="242" y="315" xmlns="http://www.w3.org/2000/svg"><title>icons/pay/24/i-credit_card-24</title><g fill="none" fill-rule="evenodd"><path d="M12.775 13.163h6.388c.24 0 .4-.155.4-.387V9.292c0-.233-.16-.388-.4-.388h-6.388c-.24 0-.4.155-.4.388v3.484c0 .232.16.387.4.387zm.4-3.484h5.588v2.71h-5.59V9.68zM2.108 8.022h3.148c.24 0 .385-.1.385-.333s-.183-.375-.422-.375l-3.162-.04c-.24 0-.46.236-.46.468 0 .232.272.28.512.28z" fill="#000" fill-rule="nonzero"/><path d="M23.594 9.922a1.501 1.501 0 0 0-1.078-.58l-.958-5.93V1.548c0-.853-.72-1.55-1.597-1.55H1.598C.72 0 0 .698 0 1.55v12.387c0 .7.485 1.294 1.144 1.484-.02 1.512.442 5.635 1.263 5.708L21 23.333h.16c.797 0 1.516-.58 1.596-1.316l1.197-10.972c.04-.387-.08-.813-.36-1.123zM.798 2.918h20.154v2.115H.798V2.918zm.8-2.143H19.96c.44 0 .8.348.8.774v.566H.797V1.55a.79.79 0 0 1 .8-.775zm-.8 13.162v-8.13h20.228v8.13c0 .426-.53.614-.97.614H1.597v.16a.788.788 0 0 1-.798-.773zm22.357-6.683l-1.198 14.608c-.04.426-.44.736-.878.697L2.674 20.545c-.4-.04-.68-4.712-.72-5.06H19.96c.88 0 1.598-.697 1.598-1.55l.17-6.843-.17-.768.918.077c.2 0 .4.116.52.27.12.156.2.388.16.582z" fill="#232323" fill-rule="nonzero"/><path d="M1.875 17.09l20.25 2.183" stroke="#232323" stroke-linecap="square"/></g></svg><svg width="26" height="26" viewBox="-1 -1 26 26" id="i-diamonds-24" x="216" y="315" xmlns="http://www.w3.org/2000/svg"><title>icons/collection/24/i-diamonds-24</title><g transform="translate(0 5)" fill-rule="nonzero" fill="#232323" opacity=".6"><path d="M23.864 5.405L19.728.779a.477.477 0 0 0-.355-.158H4.627a.477.477 0 0 0-.355.158L.136 5.405a.465.465 0 0 0 .045.664l.003.004 11.461 12.77a.477.477 0 0 0 .71 0l11.461-12.77.003-.004a.465.465 0 0 0 .045-.665zm-5.332-3.846l-2.108 3.358-3.378-3.358h5.486zm-3.114 3.687H8.582L12 1.85l3.418 3.397zM10.954 1.56L7.576 4.917 5.468 1.559h5.486zm-6.4.321l2.112 3.366H1.543l3.01-3.366zM1.55 6.184h5.606l3.872 10.559L1.55 6.183zm11.438 10.54l2.705-7.237a.467.467 0 0 0-.28-.602.476.476 0 0 0-.61.277l-2.8 7.49L8.166 6.184h14.283l-9.46 10.54zm4.345-11.478l2.112-3.366 3.01 3.366h-5.122z"/><ellipse cx="15.862" cy="7.579" rx="1" ry="1"/></g></svg><svg width="34" height="34" viewBox="-1 -1 34 34" id="i-diamonds-32" x="356" y="231" xmlns="http://www.w3.org/2000/svg"><title>icons/collection/32/i-diamonds-32</title><g transform="translate(0 7)" fill-rule="nonzero" fill="#232323" opacity=".6"><path d="M31.819 6.873L26.304.706a.636.636 0 0 0-.473-.211H6.17a.636.636 0 0 0-.474.211L.18 6.873a.62.62 0 0 0 .06.886l.004.005L15.527 24.79a.636.636 0 0 0 .946 0L31.755 7.764l.003-.005a.62.62 0 0 0 .06-.887zm-7.11-5.128L21.9 6.223l-4.504-4.478h7.314zm-4.152 4.917h-9.114L16 2.132l4.557 4.53zm-5.952-4.917l-4.504 4.478-2.81-4.478h7.314zm-8.534.428l2.817 4.489h-6.83L6.07 2.173zM2.07 7.912h7.473l5.163 14.078L2.069 7.912zm15.25 14.052l3.607-9.648a.623.623 0 0 0-.374-.803.634.634 0 0 0-.813.37l-3.733 9.986-5.118-13.957H29.93L17.318 21.964zm5.793-15.302l2.817-4.489 4.013 4.489h-6.83z"/><ellipse cx="21.15" cy="9.773" rx="1" ry="1"/></g></svg><svg width="26" height="26" viewBox="-1 -1 26 26" id="i-material-24" x="190" y="315" xmlns="http://www.w3.org/2000/svg"><title>icons/collection/24/i-material-24</title><g transform="translate(0 3)" fill="#232323" fill-rule="evenodd" opacity=".6"><path d="M21.493 8.604H17.74L15.84.23H10.77l-.062.788h4.451l1.434 7.586h-9.33L8.8 1.018l5.707.072c.11.133.11.182 0 .15-.11-.033-.11-.37 0-1.01H8.131L6.187 8.604H2.449L1.4 10.981l1.043.251.559-1.667h5.892l2.32 6.539H1.067l1.376-4.872-1.043-.251L0 16.923h24l-.028-.82H12.814l2.265-6.538 5.644-.169 2.174 6.708H24l-2.507-7.5zm-9.507 6.931l-1.93-6.139h4.048l-2.118 6.14z" fill-rule="nonzero"/><path fill-rule="nonzero" d="M10.822 5.385l.538-2.034h2.14V2.308h-3.003L9.75 5.132zM7.5 11.813v-1.044H4.497l-.747 2.824 1.072.253.538-2.033zM16.822 13.846l.538-2.033h2.14v-1.044h-3.003l-.747 2.824z"/><ellipse cx="10.125" cy="6.538" rx="1" ry="1"/><ellipse cx="4.125" cy="15" rx="1" ry="1"/><ellipse cx="16.125" cy="15" rx="1" ry="1"/></g></svg><svg width="34" height="34" viewBox="-1 -1 34 34" id="i-material-32" x="356" y="197" xmlns="http://www.w3.org/2000/svg"><title>icons/collection/32/i-material-32</title><g transform="translate(0 5)" fill="#232323" fill-rule="evenodd" opacity=".6"><path d="M28.657 11.186h-5.003L21.122.299h-6.763l-.083 1.024h5.935l1.912 9.863H9.683l2.05-9.863 7.61.094c.146.172.146.237 0 .195-.146-.043-.146-.48 0-1.313h-8.502L8.25 11.186H3.266l-1.401 3.09 1.392.326L4 12.434h7.856l3.095 8.5H1.422l1.835-6.332-1.392-.327L0 22h32l-.037-1.065H17.085l3.02-8.5 7.525-.22 2.899 8.72H32l-3.343-9.75zm-12.676 9.01l-2.574-7.981h5.398l-2.824 7.981z" fill-rule="nonzero"/><path fill-rule="nonzero" d="M14.429 7l.717-2.644H18V3h-4.003L13 6.671zM10 15.356V14H5.997L5 17.67l1.429.33.717-2.644zM22.429 18l.717-2.644H26V14h-4.003L21 17.67z"/><circle cx="13.5" cy="8.5" r="1"/><circle cx="5.5" cy="19.5" r="1"/><circle cx="21.5" cy="19.5" r="1"/></g></svg><svg width="26" height="26" viewBox="-1 -1 26 26" id="i-money-24" x="164" y="315" xmlns="http://www.w3.org/2000/svg"><title>icons/pay/24/i-money-24</title><g fill="#232323" opacity=".8"><path d="M12 12.68c-2.21 0-4.01 1.856-4.01 4.138s1.8 4.14 4.01 4.14 4.01-1.858 4.01-4.14c0-2.282-1.8-4.14-4.01-4.14zm0 7.29c-1.684 0-3.053-1.414-3.053-3.152 0-1.738 1.37-3.152 3.053-3.152 1.684 0 3.053 1.414 3.053 3.152 0 1.738-1.37 3.15-3.053 3.15z"/><path d="M23.522.002H.478A.485.485 0 0 0 0 .496v23.008c0 .273.214.494.478.494h23.044c.264 0 .478-.22.478-.494V.496a.486.486 0 0 0-.478-.494zm-3.29.765l2.13 2.448H1.638L3.94.767h16.293zM1.516 6.737l2.523-2.974H19.98l2.51 2.975H1.516zm18.675.68l2.317 2.345H1.48l2.33-2.346h16.38zM.77.78h2.062L.772 3.06V.78zM.744 3.76h2.26L.744 6.5V3.76zM.746 7.5h1.967L.746 9.653V7.5zm.012 2.995H2.69l-1.93 1.91v-1.91zM.776 23.23v-1.9l1.944 1.9H.776zm22.474.005H21.2l2.05-2.042v2.042zm-.016-3.225l-3.154 3.204H3.898L.72 20.222l.074-6.65 3.104-3.064H20.19l3.044 3.25v6.252zm-1.998-9.49h2.01v2.236l-2.01-2.236zm2.004-1.04l-1.994-1.96h1.994v1.96zm.003-3.15l-2.26-2.568h2.26V6.33zm.006-3.405L21.07.79h2.177v2.135z"/><path d="M21.467 15.203h-.23c-.262 0-.477.22-.477.493s.214.494.478.494h.23c.263 0 .477-.22.477-.494a.486.486 0 0 0-.478-.493zm-2.09 0h-1.755c-.264 0-.478.22-.478.493s.214.494.478.494h1.755c.264 0 .478-.22.478-.494a.486.486 0 0 0-.478-.493zm2.09 2.243h-3.845a.485.485 0 0 0-.478.493c0 .272.214.493.478.493h3.845c.264 0 .478-.22.478-.494a.486.486 0 0 0-.478-.494zM6.484 15.203H2.64c-.265 0-.48.22-.48.493s.215.494.48.494h3.844c.264 0 .478-.22.478-.494a.486.486 0 0 0-.478-.493zm0 2.243H2.64c-.265 0-.48.22-.48.493 0 .272.215.493.48.493h3.844c.264 0 .478-.22.478-.494a.486.486 0 0 0-.478-.494z"/></g></svg><svg width="26" height="26" viewBox="-1 -1 26 26" id="i-pen-24" x="349" y="271" xmlns="http://www.w3.org/2000/svg"><title>icons/collection/24/i-pen-24</title><g fill="#232323" opacity=".6"><path d="M11.713 6.442L8.07 8.31a.467.467 0 0 0 .215.884.483.483 0 0 0 .214-.05l3.64-1.868a.468.468 0 0 0-.426-.834z"/><path d="M23.863 10.64L13.36.137a.468.468 0 0 0-.708.053l-2.094 2.828a.466.466 0 0 0 .046.61l.777.778L6.593 6.86a.473.473 0 0 0-.222.248L.032 23.36a.471.471 0 0 0 .437.64c.056 0 .114-.01.17-.032L16.89 17.63a.46.46 0 0 0 .247-.222l2.454-4.79.778.778a.47.47 0 0 0 .61.046l2.828-2.094a.467.467 0 0 0 .053-.708zm-7.477 6.182L1.293 22.707 7.178 7.614l4.9-2.512 6.82 6.82-2.512 4.9zm4.363-4.374L11.55 3.25l1.53-2.065 9.733 9.734-2.066 1.528z"/><path d="M10.354 12.117a1.055 1.055 0 0 0-.253 1.085l-4.25 4.252a.467.467 0 0 0 .33.8c.12 0 .24-.046.332-.137l4.252-4.252a1.057 1.057 0 1 0-.411-1.748zM4.233 19.07l-1.028 1.028a.469.469 0 0 0 .662.664l1.03-1.027a.47.47 0 0 0-.664-.663zm16.58-7.95a.467.467 0 0 0 .663 0 .469.469 0 0 0 0-.663l-1.14-1.14a.47.47 0 0 0-.662.664l1.14 1.14z"/></g></svg><svg width="34" height="34" viewBox="-1 -1 34 34" id="i-pen-32" x="282" y="271" xmlns="http://www.w3.org/2000/svg"><title>icons/collection/32/i-pen-32</title><g fill="#232323" opacity=".6"><path d="M15.617 8.59l-4.856 2.488a.625.625 0 0 0 .572 1.112l4.855-2.49a.621.621 0 0 0 .27-.84.62.62 0 0 0-.84-.27z"/><path d="M31.817 14.187L17.813.183a.616.616 0 0 0-.488-.18.618.618 0 0 0-.456.25l-2.792 3.77a.624.624 0 0 0 .06.814l1.037 1.038L8.79 9.148a.623.623 0 0 0-.297.33l-8.45 21.67a.628.628 0 0 0 .14.67.632.632 0 0 0 .669.139l21.67-8.45a.62.62 0 0 0 .33-.297l3.274-6.385 1.037 1.037a.625.625 0 0 0 .814.06l3.77-2.79a.623.623 0 0 0 .25-.457.614.614 0 0 0-.18-.488zm-9.97 8.242L1.726 30.274 9.57 10.152l6.534-3.35 9.093 9.095-3.35 6.532zm5.82-5.833L15.402 4.334l2.04-2.754L30.42 14.558l-2.754 2.04z"/><path d="M13.805 16.155c-.39.392-.503.956-.337 1.448l-5.67 5.67a.626.626 0 0 0 .886.882l5.668-5.67a1.409 1.409 0 0 0 1.45-2.331 1.412 1.412 0 0 0-1.995 0zm-8.161 9.271l-1.37 1.37a.625.625 0 1 0 .883.886l1.37-1.37a.624.624 0 1 0-.883-.884zm22.106-10.6a.623.623 0 0 0 .884-.001.625.625 0 0 0 0-.884l-1.518-1.518a.625.625 0 0 0-.884.884l1.518 1.518z"/></g></svg><svg width="24" height="23" viewBox="-1 -1 24 23" id="i-phone-24" x="304" y="349" xmlns="http://www.w3.org/2000/svg"><path fill="#232323" d="M16.374 21.165c1.103 0 1.99-.377 2.712-1.152l.018-.017c.255-.306.547-.58.85-.872.208-.2.423-.403.624-.61.946-.975.942-2.21-.008-3.154l-2.658-2.625c-.453-.465-.995-.713-1.565-.713s-1.11.244-1.577.704l-1.582 1.563c-.144-.085-.292-.156-.435-.227-.175-.088-.34-.168-.49-.26-1.442-.904-2.75-2.086-4-3.605-.633-.788-1.054-1.452-1.35-2.13.412-.37.802-.756 1.174-1.133.135-.137.27-.27.408-.407.48-.474.735-1.023.735-1.58 0-.558-.255-1.103-.735-1.58L7.177 2.064c-.152-.15-.305-.3-.452-.45a23.72 23.72 0 0 0-.897-.878C5.375.29 4.838.055 4.273.055S3.166.29 2.695.737L1.037 2.37c-.6.594-.94 1.32-1.018 2.157-.086 1.045.107 2.156.613 3.502.776 2.075 1.946 4 3.68 6.06a22.547 22.547 0 0 0 7.54 5.83c1.102.518 2.576 1.125 4.217 1.23.103.01.206.015.304.015zm-11.218-7.77c-1.65-1.962-2.76-3.79-3.492-5.747-.452-1.204-.623-2.143-.55-3.032.048-.58.277-1.067.698-1.48l1.645-1.624c.256-.243.538-.372.81-.372.27 0 .54.124.795.376.296.275.578.558.874.86.152.154.304.31.46.46l1.32 1.3c.272.27.41.546.41.81 0 .267-.138.54-.41.81a35.74 35.74 0 0 0-.413.413c-.408.41-.798.796-1.22 1.173l-.022.022c-.366.363-.313.713-.223.978.005.014.01.022.014.036.34.81.816 1.58 1.55 2.496 1.332 1.616 2.726 2.873 4.268 3.838.193.12.39.22.587.314.175.09.34.17.49.262.017.008.03.017.05.026.146.07.285.106.43.106.357 0 .586-.225.662-.3l1.654-1.634c.256-.253.534-.385.803-.385.336 0 .605.203.78.385l2.667 2.634c.53.522.524 1.085-.014 1.638-.188.195-.38.38-.587.58-.31.297-.633.602-.924.947-.507.54-1.112.793-1.896.793a4.1 4.1 0 0 1-.233-.01c-1.452-.092-2.8-.65-3.81-1.128a21.49 21.49 0 0 1-7.17-5.547z"/></svg><svg width="118" height="118" viewBox="-1 -1 118 118" id="i-play-116-black-s" x="164" y="197" xmlns="http://www.w3.org/2000/svg"><title>icons/play/i-play-116-black color copy</title><g fill="none" fill-rule="evenodd"><circle fill="#FFF" cx="58" cy="58" r="58"/><path stroke="#232323" fill="#232323" d="M46 32v51.938L83.37 58.36z"/></g></svg><svg width="118" height="118" viewBox="-1 -1 118 118" id="i-play-116-white" x="394" xmlns="http://www.w3.org/2000/svg"><title>icons/play/i-play-116-white</title><g stroke="#FFF" fill="none" fill-rule="evenodd"><circle cx="58" cy="58" r="57.5"/><path d="M47.01 35.893v44.86L79.285 58.66z"/></g></svg><svg width="197" height="197" viewBox="-1 -1 197 197" id="i-play-195-black-s" xmlns="http://www.w3.org/2000/svg"><title>icons/play/i-play-195-black color</title><g transform="translate(1 1)" fill="none" fill-rule="evenodd"><circle fill="#FFF" cx="97" cy="97" r="97"/><path stroke="#232323" fill="#232323" d="M78.024 59.338v75.41l54.259-37.137z"/></g></svg><svg width="197" height="197" viewBox="-1 -1 197 197" id="i-play-195-white" x="197" xmlns="http://www.w3.org/2000/svg"><title>icons/play/i-play-195-white</title><g stroke="#FFF" fill="none" fill-rule="evenodd"><circle cx="97.5" cy="97.5" r="97"/><path d="M79.024 60.338v75.41l54.259-37.137z"/></g></svg><svg width="33" height="33" viewBox="-1 -1 33 33" id="i-rectangle-balloon" x="316" y="271" xmlns="http://www.w3.org/2000/svg"><title>Rectangle</title><defs><path id="bdb" d="M27.322 235.638h16v16.047h-16z"/><filter x="-30.9%" y="-22.1%" width="161.8%" height="161.8%" filterUnits="objectBoundingBox" id="bda"><feOffset dy="2" in="SourceAlpha" result="shadowOffsetOuter1"/><feGaussianBlur stdDeviation="2" in="shadowOffsetOuter1" result="shadowBlurOuter1"/><feColorMatrix values="0 0 0 0 0 0 0 0 0 0 0 0 0 0 0 0 0 0 0.5 0" in="shadowBlurOuter1"/></filter></defs><g transform="translate(-20 -230)" fill="none" fill-rule="evenodd"><use fill="#000" filter="url(#bda)" xlink:href="#bdb"/><use fill="#FFF" xlink:href="#bdb"/></g></svg><svg width="34" height="34" viewBox="-1 -1 34 34" id="i-telegramm-32" x="468" y="118" xmlns="http://www.w3.org/2000/svg"><title>icons/comunication/32/i-telegramm-32</title><g stroke="#232323" fill="none" fill-rule="evenodd"><path d="M23.36 7.835c-.235.09-.56.196-.84.283l-7.437 2.814c-.032.012-6.016 2.304-7.15 2.86-1.135.554-1.67.654-1.717 1.178-.037.408.678.692 1.163.933 1.17.583 2.69 1.22 3.414 1.505l.845 2.463c.005.018.547 1.336.555 1.352.486.97.62 1.427 1.182 1.493.507.06 1.072-.575 1.45-.95l1.17-1.292 3.75 2.645c.363.238.88.666 1.263.524.383-.14.398-.49.643-1.18.363-1.022 2.99-11.696 3.273-12.914.01-.036.004-.073.013-.11.507-1.985-.68-1.947-1.58-1.603z"/><path d="M21.36 11.198c-1.972 1.45-3.72 2.73-5.24 3.84a4.121 4.121 0 0 0-1.51 2.108l-.85 2.735" stroke-linecap="round" stroke-linejoin="round"/><path d="M12.53 15.17l.48 2.232" stroke-linecap="round"/></g></svg><svg width="26" height="26" viewBox="-1 -1 26 26" id="i-wallet-24" x="320" y="315" xmlns="http://www.w3.org/2000/svg"><title>icons/pay/24/i-wallet-24</title><path d="M21.838 24H2.16C.97 24 0 22.742 0 21.516V6.086c0-1.227.97-2.428 2.16-2.428H9c.01-.005 3.104-.982 9.282-2.93.103-.034.218.073.312.127a.4.4 0 0 1 .19.25l.72 2.553h2.334c1.19 0 2.16 1.2 2.16 2.427v15.43C24 22.743 23.03 24 21.84 24zM2.19 4.7c-.758 0-1.407.603-1.407 1.385v15.43c0 .783.65 1.722 1.408 1.722H21.87c.76 0 1.347-.94 1.347-1.72v-4.79H15.92c-.953 0-1.728-.797-1.728-1.776v-2.3c0-.98.774-1.777 1.727-1.777h7.295V6.085c0-.782-.618-1.688-1.377-1.688L2.19 4.7zm13.73 6.98a.959.959 0 0 0-.944.97v2.3c0 .536.422.97.943.97h7.295v-4.24H15.92zm-4.356-7.82h7.107l-.54-2.14-6.566 2.14zm5.605 11.374c-.77 0-1.394-.643-1.394-1.434 0-.79.625-1.433 1.393-1.433.767 0 1.392.643 1.392 1.433s-.625 1.434-1.393 1.434zm0-2.06c-.337 0-.61.28-.61.627a.62.62 0 0 0 .61.628.619.619 0 0 0 .608-.627.62.62 0 0 0-.61-.627z" fill="#222221"/></svg><svg width="34" height="34" viewBox="-1 -1 34 34" id="i-whatsapp-32" x="468" y="226" xmlns="http://www.w3.org/2000/svg"><title>icons/comunication/32/i-whatsapp-32</title><g stroke="#232323" fill="none" fill-rule="evenodd"><path d="M8.256 25.02l4.914-1.167.127.038a8.841 8.841 0 0 0 2.513.368c4.766 0 8.642-3.835 8.642-8.546 0-4.71-3.876-8.545-8.642-8.545-4.767 0-8.643 3.835-8.643 8.545a8.45 8.45 0 0 0 2.326 5.835l.23.244-.138.307-1.33 2.923z"/><path d="M16.968 16.84c.57-.768 1.08-1.06 1.528-.87.448.187.938.652 1.47 1.393l-1.545 1.87c-1.305-.038-2.752-.77-4.34-2.197-1.586-1.427-2.316-2.79-2.19-4.094l1.724-1.704c.808.82 1.25 1.387 1.33 1.704.077.317-.165.707-.726 1.172"/></g></svg><svg width="26" height="26" viewBox="-1 -1 26 26" id="i-wood-24" x="252" y="349" xmlns="http://www.w3.org/2000/svg"><title>icons/collection/24/i-wood-24</title><g fill="#232323" opacity=".6"><path d="M11.966 2.327c-5.383 0-9.763 4.38-9.763 9.764 0 5.385 4.38 9.765 9.763 9.765 5.384 0 9.764-4.38 9.764-9.764 0-5.383-4.38-9.763-9.764-9.763zm0 18.816c-4.99 0-9.05-4.06-9.05-9.052 0-4.99 4.06-9.05 9.05-9.05 4.99 0 9.052 4.06 9.052 9.05 0 4.992-4.06 9.053-9.052 9.053z"/><path d="M23.723 12.6c-.084-.178-.19-.402-.19-.51 0-.68-.06-1.36-.176-2.024-.03-.17.003-.316.042-.484.052-.232.118-.52.003-.873a34.69 34.69 0 0 1-.16-.514c-.2-.654-.427-1.394-.746-1.95-.16-.277-.467-.48-.763-.68-.2-.132-.405-.27-.49-.385-.09-.118-.192-.417-.282-.68-.14-.416-.275-.808-.492-1.037a11.706 11.706 0 0 0-1.147-1.057c-.365-.294-.767-.314-1.122-.332-.26-.013-.484-.024-.682-.133a11.7 11.7 0 0 0-1.785-.79c-.175-.06-.41-.225-.635-.385-.34-.24-.69-.49-1.057-.56A11.663 11.663 0 0 0 11.86 0c-.586 0-1.09.236-1.58.465-.31.145-.6.28-.892.348C9.174.86 8.9.846 8.61.83 8.2.81 7.775.786 7.4.938c-.536.216-1.06.475-1.557.77-.322.19-.52.514-.713.826-.132.216-.258.42-.4.533-.198.16-.468.27-.754.388-.415.17-.843.345-1.152.705-.408.474-.78.985-1.104 1.518-.27.442-.36 1.015-.448 1.57-.057.358-.11.696-.206.964A11.48 11.48 0 0 0 .4 12.091c0 .26-.087.572-.178.9-.13.466-.262.946-.18 1.394.078.425.18.85.307 1.263.123.41.272.817.442 1.21.145.337.46.553.763.76.198.137.402.277.48.408a11.763 11.763 0 0 0 1.35 1.821c.11.12.235.352.356.576.182.33.368.673.608.88.402.348.83.672 1.277.96.297.194.61.193.86.192.178 0 .333 0 .46.06.204.1.434.303.678.52.354.314.72.64 1.14.76.383.11.72.13 1.047.15.175.01.356.022.55.047.048.007.097.01.147.01.284 0 .568-.096.844-.19.22-.075.45-.152.616-.152.282 0 .59.077.914.158.468.117.95.238 1.43.144.496-.098.982-.294 1.452-.482.147-.06.286-.115.423-.167.322-.12.57-.384.79-.616.156-.167.305-.325.448-.402a11.645 11.645 0 0 0 1.544-.992c.128-.098.363-.166.59-.233.34-.1.695-.204.944-.45.455-.45.875-.94 1.248-1.458.196-.272.223-.623.246-.932.016-.208.033-.423.098-.54.282-.51.528-1.046.73-1.593.056-.155.21-.306.374-.467.237-.233.505-.498.587-.88.088-.408.154-.826.196-1.242.03-.296-.116-.606-.257-.905zm-.452.834c-.04.39-.1.782-.183 1.165-.037.173-.21.342-.39.52-.202.2-.43.425-.544.728-.19.513-.42 1.016-.684 1.495-.14.252-.164.546-.186.83-.017.227-.035.46-.114.57-.35.485-.744.945-1.17 1.367-.12.12-.387.2-.643.274-.29.084-.59.172-.822.35-.456.347-.944.66-1.448.93-.246.132-.442.34-.63.54-.175.186-.355.377-.524.44-.144.055-.293.115-.437.173-.44.176-.893.36-1.325.444-.32.064-.707-.032-1.117-.135-.353-.088-.718-.18-1.087-.18-.285 0-.57.097-.844.19-.247.084-.502.17-.673.15a7.766 7.766 0 0 0-.598-.05c-.314-.02-.585-.036-.892-.125-.264-.076-.57-.347-.864-.61-.27-.238-.548-.486-.84-.627-.254-.122-.506-.13-.717-.13h-.06c-.216 0-.354-.003-.467-.077a11.06 11.06 0 0 1-1.2-.902c-.14-.123-.303-.42-.446-.683-.15-.27-.29-.528-.455-.712a10.837 10.837 0 0 1-1.264-1.707c-.16-.265-.43-.45-.69-.63-.22-.15-.45-.307-.512-.455a10.652 10.652 0 0 1-.703-2.32c-.053-.287.058-.687.165-1.074.1-.36.204-.732.204-1.09a10.698 10.698 0 0 1 .215-2.158c.1-.502.24-1 .41-1.482.118-.33.18-.717.238-1.09.077-.487.157-.99.353-1.31.305-.502.653-.982 1.036-1.427.197-.23.53-.366.882-.51.32-.132.65-.268.93-.492.238-.19.402-.456.56-.714.147-.24.3-.485.47-.587.467-.277.958-.52 1.46-.723.228-.092.573-.074.906-.055.326.017.663.036.974-.035.366-.083.706-.243 1.036-.397.438-.205.85-.398 1.28-.398.687 0 1.376.065 2.046.193.214.04.514.253.78.44.266.19.542.386.813.48.577.198 1.14.447 1.676.74.34.188.686.205.99.22.326.016.535.034.71.176.38.306.742.64 1.077.993.11.116.24.498.336.777.116.343.227.668.383.877.16.213.416.385.665.552.218.144.464.31.542.443.28.485.493 1.184.682 1.8.056.185.11.36.164.526.054.165.022.302-.02.492-.048.203-.106.455-.05.767.11.623.165 1.263.165 1.9 0 .267.132.545.26.814.08.172.2.43.19.53z"/><path d="M11.842 5.25c-1.51 0-2.947.473-4.156 1.37a.456.456 0 1 0 .544.735 6.026 6.026 0 0 1 3.612-1.19 6.084 6.084 0 0 1 6.076 6.077c0 2.795-1.89 5.22-4.598 5.896a.458.458 0 1 0 .223.888 6.979 6.979 0 0 0 5.292-6.784 7 7 0 0 0-6.992-6.992zM7.65 17.19a6.056 6.056 0 0 1-2.234-4.707c0-1.267.386-2.48 1.116-3.51a.458.458 0 0 0-.747-.53 6.949 6.949 0 0 0-1.285 4.04c0 2.107.936 4.08 2.57 5.416a.457.457 0 0 0 .643-.066.46.46 0 0 0-.064-.644z"/><path d="M15.897 12.22a.457.457 0 0 0-.458.457 3.516 3.516 0 0 1-3.513 3.512 3.515 3.515 0 0 1-3.51-3.513 3.513 3.513 0 0 1 3.51-3.51.46.46 0 0 0 .46-.46.46.46 0 0 0-.46-.457 4.433 4.433 0 0 0-4.427 4.427 4.432 4.432 0 0 0 4.427 4.428 4.433 4.433 0 0 0 4.428-4.428.458.458 0 0 0-.458-.458z"/><path d="M12.363 10.5a1.865 1.865 0 0 0-1.863 1.863 1.864 1.864 0 1 0 1.863-1.863zm0 2.81c-.522 0-.947-.425-.947-.947s.425-.947.947-.947a.947.947 0 0 1-.001 1.893z"/></g></svg><svg width="34" height="34" viewBox="-1 -1 34 34" id="i-wood-32" x="468" y="192" xmlns="http://www.w3.org/2000/svg"><title>icons/collection/32/i-wood-32</title><g fill="#232323" opacity=".6"><path d="M15.955 3.103c-7.178 0-13.018 5.84-13.018 13.018 0 7.18 5.84 13.02 13.018 13.02 7.18 0 13.02-5.84 13.02-13.02 0-7.177-5.841-13.017-13.02-13.017zm0 25.087c-6.655 0-12.07-5.414-12.07-12.07 0-6.653 5.415-12.068 12.07-12.068s12.07 5.415 12.07 12.07c0 6.654-5.415 12.068-12.07 12.068z"/><path d="M31.63 16.802c-.112-.24-.252-.537-.252-.68 0-.907-.08-1.816-.236-2.7-.04-.228.005-.422.056-.646.07-.31.16-.693.006-1.165-.07-.212-.14-.44-.214-.682-.266-.87-.568-1.86-.995-2.598-.213-.37-.622-.644-1.017-.908-.265-.177-.54-.36-.654-.514-.118-.16-.254-.557-.374-.908-.19-.554-.368-1.077-.657-1.382-.476-.502-.99-.977-1.528-1.41-.487-.392-1.024-.42-1.497-.443-.347-.017-.646-.032-.91-.177a15.49 15.49 0 0 0-2.38-1.053c-.234-.08-.546-.3-.847-.515-.452-.32-.92-.653-1.41-.746A15.407 15.407 0 0 0 15.816 0c-.783 0-1.457.315-2.108.62-.412.193-.8.375-1.19.464-.285.064-.65.044-1.036.023-.547-.03-1.114-.06-1.615.142a15.31 15.31 0 0 0-2.074 1.026c-.43.255-.694.685-.95 1.1-.176.29-.344.56-.53.712-.267.213-.627.36-1.01.517-.55.226-1.123.46-1.535.94A15.345 15.345 0 0 0 2.296 7.57c-.36.59-.48 1.354-.597 2.094-.076.477-.147.928-.274 1.285a15.259 15.259 0 0 0-.824 3.75 15.3 15.3 0 0 0-.065 1.42c0 .348-.115.763-.237 1.202-.172.62-.35 1.26-.24 1.857a15.284 15.284 0 0 0 1 3.296c.193.45.612.737 1.017 1.015.264.182.537.37.64.543a15.51 15.51 0 0 0 1.799 2.428c.146.163.314.47.477.77.24.44.488.896.807 1.173.536.464 1.11.895 1.703 1.28.396.26.812.257 1.146.256.238-.002.444-.003.614.08.272.13.58.403.904.69.472.42.96.855 1.52 1.016.51.147.96.174 1.395.2.233.014.474.03.73.062.067.008.133.012.2.012.378 0 .757-.13 1.125-.254.293-.1.597-.202.82-.202.375 0 .785.102 1.22.21.622.157 1.267.32 1.903.192.664-.13 1.312-.39 1.938-.642.196-.08.38-.154.564-.223.43-.162.76-.512 1.052-.822.21-.222.408-.432.6-.535A15.61 15.61 0 0 0 25.29 28.4c.17-.13.483-.222.786-.31.455-.134.926-.272 1.26-.602.604-.6 1.164-1.253 1.66-1.942.262-.362.298-.83.33-1.242.02-.278.043-.564.13-.72.376-.68.704-1.395.973-2.124.075-.206.28-.41.498-.623.316-.31.674-.663.783-1.174.117-.543.205-1.1.262-1.654.04-.397-.154-.81-.34-1.208zm-.602 1.11c-.054.52-.136 1.043-.245 1.553-.05.232-.28.457-.52.695-.27.265-.576.566-.725.97-.252.685-.56 1.355-.913 1.994-.187.337-.217.728-.246 1.107-.024.303-.048.615-.153.76-.467.648-.992 1.26-1.56 1.824-.162.16-.516.264-.858.364-.387.113-.786.23-1.096.467-.61.463-1.26.88-1.932 1.242-.327.175-.588.452-.84.72-.233.246-.473.5-.698.586-.192.073-.39.152-.582.23-.586.235-1.19.478-1.768.592-.428.084-.944-.044-1.49-.18-.47-.12-.957-.24-1.45-.24-.38 0-.758.128-1.124.252-.33.112-.67.228-.898.2-.29-.038-.546-.054-.796-.07-.418-.024-.78-.046-1.19-.163-.352-.102-.758-.463-1.152-.813-.36-.318-.73-.648-1.12-.836C9.335 29 9 28.99 8.718 28.99H8.64c-.29 0-.474-.004-.625-.102a14.793 14.793 0 0 1-1.6-1.203c-.188-.164-.404-.56-.595-.91-.197-.363-.384-.706-.606-.95a14.699 14.699 0 0 1-1.687-2.28c-.212-.352-.572-.6-.92-.837-.293-.202-.598-.41-.682-.608a14.489 14.489 0 0 1-.938-3.093c-.07-.383.078-.916.22-1.432.134-.48.272-.978.272-1.454 0-.444.02-.893.06-1.334a14.52 14.52 0 0 1 .774-3.519c.157-.44.238-.956.317-1.454.103-.65.21-1.32.47-1.748.407-.667.872-1.307 1.382-1.9.263-.308.707-.49 1.176-.682.428-.175.87-.356 1.243-.655.316-.254.535-.61.746-.954.195-.317.397-.646.625-.782a14.66 14.66 0 0 1 1.946-.963c.305-.124.765-.1 1.21-.075.434.024.883.05 1.297-.046.49-.112.943-.324 1.382-.53.583-.273 1.134-.53 1.705-.53.918 0 1.836.086 2.73.256.284.055.684.339 1.037.59.356.25.724.512 1.087.637.767.264 1.518.597 2.23.988.457.25.916.273 1.32.294.436.02.714.044.95.233.504.407.987.853 1.434 1.324.147.156.32.665.448 1.036.156.458.304.89.51 1.17.214.284.557.514.89.735.29.195.618.415.72.594.373.646.66 1.58.91 2.4.076.247.147.48.22.7.07.223.03.406-.03.66-.06.27-.138.605-.065 1.022.147.83.22 1.684.22 2.535 0 .357.176.727.345 1.086.107.228.27.573.256.706z"/><path d="M15.79 7c-2.013 0-3.93.63-5.543 1.825a.611.611 0 0 0 .727.981 8.035 8.035 0 0 1 4.815-1.586c4.467 0 8.1 3.636 8.1 8.103 0 3.726-2.52 6.96-6.13 7.86a.61.61 0 1 0 .298 1.186 9.31 9.31 0 0 0 7.054-9.047C25.112 11.183 20.93 7 15.79 7zm-5.592 15.92a8.086 8.086 0 0 1-2.978-6.277c0-1.69.516-3.307 1.49-4.68a.61.61 0 0 0-.146-.85.606.606 0 0 0-.85.144A9.24 9.24 0 0 0 6 16.644a9.29 9.29 0 0 0 3.425 7.22.611.611 0 0 0 .774-.945z"/><path d="M21.196 16.293a.61.61 0 0 0-.61.61c0 2.582-2.1 4.682-4.683 4.682-2.58 0-4.682-2.1-4.682-4.682a4.69 4.69 0 0 1 4.683-4.682.61.61 0 1 0 0-1.22A5.908 5.908 0 0 0 10 16.903a5.91 5.91 0 0 0 5.903 5.904 5.912 5.912 0 0 0 5.904-5.904.61.61 0 0 0-.61-.61z"/><path d="M16.483 14A2.485 2.485 0 0 0 14 16.483a2.486 2.486 0 0 0 2.483 2.484 2.486 2.486 0 0 0 2.484-2.484A2.486 2.486 0 0 0 16.483 14zm0 3.745a1.263 1.263 0 0 1-1.262-1.262c0-.696.567-1.262 1.263-1.262s1.262.567 1.262 1.263-.566 1.262-1.262 1.262z"/></g></svg><svg width="164" height="152" viewBox="-1 -1 164 152" id="phones" y="197" xmlns="http://www.w3.org/2000/svg"><title>phones</title><g fill="none" fill-rule="evenodd"><path d="M141.994 83.058l.948.947H28.982l.996-.947v62.905l-.997-.97h113.962l-.948.97V83.058zm.955 62.788l-113.97.173V83.025h113.97v62.82zm6.043-43.552c0 .942.694 1.706 1.55 1.706.857 0 1.55-.764 1.55-1.706s-.693-1.706-1.55-1.706c-.856 0-1.55.764-1.55 1.706zM153.07 114c0 .725.266.984.928.99.662.006.927-.044.927-.99s-.537-.964-.927-.964-.927.24-.927.964zm-3.076-6.353c.553 0 1 .452 1 .997v10.712c0 .55-.443.997-1 .997-.553 0-1-.452-1-.997v-10.712c0-.55.443-.997 1-.997zm-128.796 12c3.126 0 5.66-2.528 5.66-5.647a5.653 5.653 0 0 0-5.66-5.647c-3.126 0-5.66 2.528-5.66 5.647a5.653 5.653 0 0 0 5.66 5.647zm0-9.882A4.24 4.24 0 0 1 25.443 114c0 2.34-1.9 4.235-4.245 4.235A4.24 4.24 0 0 1 16.953 114c0-2.34 1.9-4.235 4.245-4.235zm2.122-29.8c-5.465 0-10.332 5.29-10.332 10.75v47.983c0 5.47 4.858 10.37 10.332 10.37h127.36c5.4 0 10.15-4.99 10.256-10.37V90.714c0-5.47-4.602-10.748-10.077-10.748H23.32zM162 90.716v47.983c0 6.242-5.077 11.302-11.32 11.302H23.32C17.068 150 12 144.952 12 138.698V90.714c0-6.242 5.077-11.58 11.32-11.58h127.54c6.252 0 11.14 5.326 11.14 11.58zm-19.81-12.01v.707l-5.662-.28v-.426c0-.39.305-.706.694-.706h4.273c.383 0 .694.327.694.706zm-12.737 0v.428l-11.32.28v-.707c0-.39.326-.706.707-.706h9.905c.39 0 .708.327.708.706zm-14.15 0v.707H103.98v-.706c0-.39.328-.706.71-.706h9.904c.39 0 .708.327.708.706z" fill="#DD4E5D" fill-rule="nonzero" opacity=".35"/><rect fill="#FFF" y="57" width="87" height="93" rx="15"/><path d="M17.058 20.006l.947-.948v113.96l-.947-.996h62.905l-.97.997V19.057l.97.948H17.058zm62.788-.955l.173 113.97H17.025V19.05h62.82zm-43.552-6.043c.942 0 1.706-.694 1.706-1.55 0-.857-.764-1.55-1.706-1.55s-1.706.693-1.706 1.55c0 .856.764 1.55 1.706 1.55zM48 8.93c.725 0 .984-.266.99-.928.006-.662-.044-.927-.99-.927s-.964.537-.964.927.24.927.964.927zm-6.353 3.076c0-.553.452-1 .997-1h10.712c.55 0 .997.443.997 1 0 .553-.452 1-.997 1H42.644a.996.996 0 0 1-.997-1zm12 128.796c0-3.126-2.528-5.66-5.647-5.66a5.653 5.653 0 0 0-5.647 5.66c0 3.126 2.528 5.66 5.647 5.66a5.653 5.653 0 0 0 5.647-5.66zm-9.882 0A4.24 4.24 0 0 1 48 136.557c2.34 0 4.235 1.9 4.235 4.245A4.24 4.24 0 0 1 48 145.047c-2.34 0-4.235-1.9-4.235-4.245zm-29.8-2.122c0 5.465 5.29 10.332 10.75 10.332h47.983c5.47 0 10.37-4.858 10.37-10.332V11.32c0-5.4-4.99-10.15-10.37-10.256H24.714c-5.47 0-10.748 4.602-10.748 10.077v127.54zM24.716 0h47.983C78.94 0 84 5.077 84 11.32v127.36c0 6.252-5.048 11.32-11.302 11.32H24.714c-6.242 0-11.58-5.077-11.58-11.32V11.14C13.133 4.89 18.46 0 24.713 0zm-12.01 19.81h.707l-.28 5.662h-.426a.696.696 0 0 1-.706-.694v-4.273c0-.383.327-.694.706-.694zm0 12.737h.428l.28 11.32h-.707a.713.713 0 0 1-.706-.707v-9.905c0-.39.327-.708.706-.708zm0 14.15h.707V58.02h-.706a.715.715 0 0 1-.706-.71v-9.904c0-.39.327-.708.706-.708z" fill-rule="nonzero" fill="#232241"/><path d="M113.888 102C115.615 65.333 97.318 47 59 47m10.8-3L59 47l10.8 3" stroke="#DD4E5D" stroke-linecap="round"/><path fill="#DD4E5D" d="M67 48h2v1h-2z"/><path d="M69.99 43.5c-.687 1.713-.687 3.852 0 6.42" stroke="#DD4E5D"/><path fill="#DD4E5D" d="M64 45h5v2h-5z"/><path fill="#DD4E5D" d="M62 46h5v2h-5z"/><path fill="#DD4E5D" d="M65 47h5v2h-5z"/></g></svg></svg>