<?xml version="1.0" encoding="UTF-8"?>
<svg width="104px" height="32px" viewBox="0 0 104 32" version="1.1" xmlns="http://www.w3.org/2000/svg" xmlns:xlink="http://www.w3.org/1999/xlink">
    <!-- Generator: Sketch 47.1 (45422) - http://www.bohemiancoding.com/sketch -->
    <title>Sudakov-logo-plate-main-white Copy 3</title>
    <desc>Created with Sketch.</desc>
    <defs></defs>
    <g id="Ico" stroke="none" stroke-width="1" fill="none" fill-rule="evenodd">
        <g id="Sudakov-logo-plate-main-white-Copy-3" fill-rule="nonzero">
            <rect id="Rectangle-path" fill="#FFFFFF" x="0" y="0" width="103.438596" height="31.8315789"></rect>
            <path d="M91.5929825,13.1929825 L90.077193,17.3192982 L90.1894737,17.3473684 L91.6491228,13.6701754 C92.2947368,12.0140351 93.0807018,11.1719298 94.0070175,11.1438596 L94.0070175,11.0315789 L90.4421053,11.0315789 L90.4421053,11.1438596 C91.8736842,11.1719298 92.1263158,11.7894737 91.5929825,13.1929825 Z M64.5894737,13.7263158 L64.6736842,13.7824561 L65.4035088,12.8561404 C66.2175439,11.845614 67.2842105,11.2 68.2947368,11.1157895 L68.2947368,11.0035088 L64.8421053,11.0035088 L64.8421053,11.1157895 C65.4315789,11.1438596 65.7403509,11.3684211 65.7403509,11.7333333 C65.7403509,12.0140351 65.5719298,12.3789474 65.2631579,12.8 L64.5894737,13.7263158 Z M14.7087719,10.9192982 L14.7087719,10.9192982 L14.7087719,11.0035088 C16.3649123,11.1438596 17.0947368,11.9298246 17.4877193,13.9789474 L17.5438596,13.9789474 L17.5438596,10.6105263 L17.4596491,10.6105263 C17.2912281,10.9192982 17.1508772,11.0035088 16.5894737,11.0035088 C15.9719298,11.0035088 15.354386,10.9192982 14.8491228,10.9192982 C14.8210526,10.9192982 14.7929825,10.9192982 14.7087719,10.9192982 Z M85.3614035,13.8385965 L88.5052632,21.2491228 L88.5614035,21.2491228 L89.3473684,19.3684211 L86.9614035,13.754386 C86.6245614,12.9684211 86.4561404,12.3789474 86.4561404,12.0140351 C86.4561404,11.4807018 86.7929825,11.1719298 87.4385965,11.1719298 L87.4385965,11.0596491 L83.2,11.0596491 L83.2,11.1719298 C84.0982456,11.1719298 84.4070175,11.5929825 85.3614035,13.8385965 Z M76.3508772,10.9192982 C76.1263158,10.9192982 75.9017544,10.9192982 75.677193,10.9473684 L75.677193,11.0315789 C78.1473684,11.3684211 79.6070175,13.3614035 79.6070175,16.3929825 C79.6070175,18.1614035 79.1298246,19.4807018 78.1473684,20.4631579 L78.2035088,20.5192982 C80.0280702,19.8175439 81.1789474,18.0210526 81.1789474,15.8315789 C81.2070175,12.9403509 79.2140351,10.9192982 76.3508772,10.9192982 Z M73.9368421,11.7052632 L73.9368421,11.7052632 L73.9087719,11.6210526 C72.0280702,12.3508772 70.9052632,14.0912281 70.9052632,16.3087719 C70.9052632,19.2280702 72.8701754,21.2210526 75.7333333,21.2210526 C75.9578947,21.2210526 76.1824561,21.2210526 76.4070175,21.1929825 L76.4070175,21.0807018 C73.9929825,20.7719298 72.477193,18.6947368 72.477193,15.7473684 C72.477193,14.0070175 72.9824561,12.6035088 73.9368421,11.7052632 Z M66.7508772,18.9473684 L63.8596491,14.7649123 L62.9052632,15.8596491 L64.954386,18.7789474 C65.5438596,19.6210526 65.7122807,19.9578947 65.7122807,20.2666667 C65.7122807,20.6315789 65.5157895,20.8 65.0385965,20.8280702 L65.0385965,20.9403509 L69.2210526,20.9403509 L69.2210526,20.8280702 C68.2666667,20.8280702 67.7894737,20.4631579 66.7508772,18.9473684 Z M60.322807,13.0526316 L60.322807,18.9473684 C60.322807,20.4912281 60.0701754,20.8280702 58.8631579,20.8561404 L58.8631579,20.9684211 L63.0736842,20.9684211 L63.0736842,20.8561404 C62.0912281,20.8561404 61.8385965,20.4631579 61.8385965,19.0315789 L61.8385965,12.9403509 C61.8385965,11.5368421 62.1192982,11.1438596 63.1298246,11.1438596 L63.1298246,11.0315789 L58.8631579,11.0315789 L58.8631579,11.1438596 C60.0701754,11.1438596 60.322807,11.4807018 60.322807,13.0526316 Z M54.9333333,18.1894737 L51.7894737,10.7508772 L51.7052632,10.7508772 L50.9192982,12.6315789 L53.3052632,18.245614 C53.6421053,19.0035088 53.7824561,19.5649123 53.7824561,19.9859649 C53.7824561,20.5473684 53.4736842,20.8280702 52.8,20.8561404 L52.8,20.9684211 L57.0947368,20.9684211 L57.0947368,20.8561404 C56.1964912,20.8280702 55.9157895,20.4631579 54.9333333,18.1894737 Z M50.1052632,15.1298246 L50.3017544,14.5684211 L50.2175439,14.5403509 L48.9263158,17.7122807 L51.7052632,17.7122807 L51.7052632,17.6 L51.0877193,17.6 C50.1614035,17.6 49.7684211,17.3192982 49.7684211,16.6736842 C49.7403509,16.3368421 49.8526316,15.8315789 50.1052632,15.1298246 Z M38.877193,10.9192982 L38.877193,10.9192982 L38.877193,11.0035088 C41.5157895,11.2280702 43.1438596,13.3052632 43.1438596,16.477193 C43.1438596,18.8631579 42.2175439,20.3508772 40.5052632,20.8 L40.5333333,20.8842105 C43.1438596,20.4912281 44.7157895,18.6105263 44.7157895,15.8315789 C44.7157895,12.7438596 42.722807,10.8631579 39.4385965,10.8631579 C39.2421053,10.9192982 39.045614,10.9192982 38.877193,10.9192982 Z M37.3614035,19.0035088 L37.3614035,11.0315789 L34.3859649,11.0315789 L34.3859649,11.1438596 C35.5929825,11.1438596 35.845614,11.4807018 35.845614,13.0526316 L35.845614,18.9473684 C35.845614,20.5192982 35.5929825,20.8280702 34.3859649,20.8561404 L34.3859649,20.9684211 L38.6526316,20.9684211 L38.6526316,20.8561404 C37.6421053,20.8280702 37.3614035,20.4631579 37.3614035,19.0035088 Z M30.0070175,18.3578947 L30.0912281,18.3578947 L30.2035088,13.3894737 C30.2315789,11.7333333 30.7087719,11.1438596 31.9719298,11.1157895 L31.9719298,11.0035088 L28.2385965,11.0035088 L28.2385965,11.1157895 C29.5578947,11.1438596 30.0350877,11.7333333 30.0350877,13.3614035 L30.0070175,18.3578947 Z M26.6666667,21.0526316 C28.0701754,21.0526316 28.9964912,20.7157895 29.6140351,19.9578947 L29.5578947,19.9017544 C29.0245614,20.4912281 28.3508772,20.7438596 27.2561404,20.7438596 C25.1789474,20.7438596 24.3649123,19.845614 24.3649123,17.5719298 L24.3649123,13.0245614 C24.3649123,11.4807018 24.6175439,11.1438596 25.7964912,11.1157895 L25.7964912,11.0035088 L21.3614035,11.0035088 L21.3614035,11.1157895 C22.5403509,11.1157895 22.8210526,11.4807018 22.8210526,13.0245614 L22.8210526,17.6 C22.7929825,19.9298246 24.0842105,21.0526316 26.6666667,21.0526316 Z M18.1614035,18.077193 C18.1614035,16.7017544 17.3192982,15.7754386 15.5789474,15.2701754 L14.6245614,14.9894737 C13.1368421,14.5684211 12.4912281,13.8666667 12.4912281,12.9122807 C12.4912281,12.2947368 12.7719298,11.6210526 13.1649123,11.3403509 L13.1368421,11.2842105 C12.0701754,11.7333333 11.5087719,12.6315789 11.5087719,13.8105263 C11.5087719,15.1298246 12.2666667,15.9719298 13.8105263,16.4210526 L15.1578947,16.8421053 C16.4210526,17.2350877 17.0666667,17.9929825 17.0666667,19.0596491 C17.0666667,19.7333333 16.7859649,20.4070175 16.3649123,20.7438596 L16.3929825,20.8 C17.4315789,20.322807 18.1614035,19.2280702 18.1614035,18.077193 Z M48.5894737,18.722807 L48.5894737,18.722807 L48.5052632,18.6947368 C47.8877193,20.1824561 47.2421053,20.8 46.2315789,20.8561404 L46.2315789,20.9684211 L49.7684211,20.9684211 L49.7684211,20.8561404 C48.7298246,20.8280702 48.3649123,20.5754386 48.3649123,19.9298246 C48.3649123,19.6210526 48.4491228,19.2561404 48.5894737,18.722807 Z M14.5684211,20.9964912 L14.6526316,20.9964912 L14.6526316,20.9122807 C12.8842105,20.7157895 11.9578947,19.7614035 11.5368421,17.6280702 L11.4526316,17.6280702 L11.4526316,21.1368421 L11.5087719,21.1368421 C11.6210526,20.8280702 11.8175439,20.7438596 12.2385965,20.7438596 C12.8842105,20.7719298 13.754386,20.9964912 14.5684211,20.9964912 Z" id="Shape" fill="#040706"></path>
        </g>
    </g>
</svg>