<?xml version="1.0" encoding="UTF-8"?>
<svg width="103px" height="32px" viewBox="0 0 103 32" version="1.1" xmlns="http://www.w3.org/2000/svg" xmlns:xlink="http://www.w3.org/1999/xlink">
    <!-- Generator: Sketch 47.1 (45422) - http://www.bohemiancoding.com/sketch -->
    <title>Artboard</title>
    <desc>Created with Sketch.</desc>
    <defs>
        <polygon id="path-1" points="82.7333484 10.9657103 82.7333484 0.213931034 3.75565611e-05 0.213931034 3.75565611e-05 10.9657103 82.7333484 10.9657103"></polygon>
    </defs>
    <g id="Logo" stroke="none" stroke-width="1" fill="none" fill-rule="evenodd">
        <g id="Artboard">
            <g id="Group-3" transform="translate(11.000000, 11.000000)">
                <mask id="mask-2" fill="white">
                    <use xlink:href="#path-1"></use>
                </mask>
                <g id="Clip-2"></g>
                <path d="M15.2277208,10.8101931 C16.7247253,10.8101931 17.6677706,10.4081241 18.2589109,9.52281379 L18.0621145,9.38777931 C17.6546258,10.0197103 16.929033,10.3095034 15.7576439,10.3095034 C13.7066801,10.3095034 12.9555489,9.48867586 12.9555489,7.25681379 L12.9555489,2.64629655 C12.9555489,1.14043448 13.1816394,0.843434483 14.3289923,0.843434483 L14.3289923,0.599158621 L9.94726833,0.599158621 L9.94726833,0.843434483 C11.1066394,0.843434483 11.3481281,1.15446897 11.3481281,2.64629655 L11.3481281,7.25681379 C11.3481281,9.62674483 12.6396982,10.8101931 15.2277208,10.8101931 L15.2277208,10.8101931 Z M3.75565611e-05,10.911469 L0.230634842,10.911469 C0.314761538,10.6292621 0.487897285,10.5116759 0.802621267,10.5116759 C1.59093348,10.5116759 2.32854434,10.7089172 3.15891991,10.7089172 L3.15891991,10.5116759 C1.45497873,10.2526069 0.558879186,9.3066069 0.18969819,7.27198621 L3.75565611e-05,7.27198621 L3.75565611e-05,10.911469 Z M4.98266652,10.4081241 C6.07105566,9.8641931 6.54464389,8.79188276 6.54464389,7.67936552 C6.54464389,6.04415862 5.51709638,5.26922759 4.0861914,4.82505517 L2.60233167,4.36495172 C1.44784299,4.00953793 1.11734525,3.43184828 1.11734525,2.5894 C1.11734525,2.08112414 1.26268914,1.50077931 1.59093348,1.1301931 L1.49704208,1.00122759 C0.544232127,1.51481379 0.042100905,2.38457241 0.042100905,3.49102069 C0.042100905,5.05681379 1.04636335,5.85184828 2.2384086,6.20726207 L3.63814163,6.62222759 C4.89966652,6.99243448 5.40179774,7.56671034 5.4044267,8.69098621 C5.4044267,9.27133103 5.2264086,9.93891724 4.88877511,10.2639862 L4.98266652,10.4081241 Z M5.78525023,3.70874483 L6.01472081,3.70874483 L6.01472081,0.2134 L5.78525023,0.2134 C5.64816878,0.527089655 5.4044267,0.586641379 5.08970271,0.586641379 C4.40955339,0.586641379 3.87963032,0.511917241 3.3774991,0.511917241 L3.1852095,0.511917241 L3.1852095,0.729641379 C4.92595611,0.887434483 5.45850814,1.88767586 5.78525023,3.70874483 L5.78525023,3.70874483 Z M18.4527027,7.72867586 L18.6675262,7.72867586 L18.7899606,3.00702069 C18.832024,1.3794 19.2552864,0.843434483 20.4792548,0.843434483 L20.4792548,0.599158621 L16.7104538,0.599158621 L16.7104538,0.843434483 C17.9682231,0.843434483 18.4140195,1.38964138 18.4237842,2.97781379 L18.4527027,7.72867586 Z M23.1333769,10.6812276 L27.3904131,10.6812276 L27.3904131,10.437331 C26.376386,10.437331 26.1397796,10.1160552 26.1397796,8.73271034 L26.1397796,0.599158621 L23.1333769,0.599158621 L23.1333769,0.843434483 C24.307395,0.843434483 24.5346122,1.13777931 24.5346122,2.64629655 L24.5346122,8.64926207 C24.5346122,10.1464 24.307395,10.437331 23.1333769,10.437331 L23.1333769,10.6812276 Z M29.1878701,10.6671931 C31.8021824,10.2992621 33.2969335,8.33177931 33.2969335,5.48164138 C33.2969335,2.24688276 31.4780692,0.498262069 28.1678339,0.498262069 C27.9838068,0.498262069 27.7182819,0.508124138 27.5406394,0.527089655 L27.5500285,0.783882759 C30.2296891,0.969744828 31.6354312,3.21943448 31.6354312,6.0251931 C31.6354312,8.8411931 30.6920104,10.0614345 29.1337887,10.4081241 L29.1878701,10.6671931 Z M35.1364538,10.6812276 L38.6986937,10.6812276 L38.6986937,10.437331 C37.6895489,10.4221586 37.3398973,10.1752276 37.3398973,9.47881379 C37.3398973,9.21936552 37.386843,8.8666069 37.4627072,8.5734 L37.2437525,8.53167586 C36.6477299,9.86950345 36.0520828,10.4081241 35.1364538,10.437331 L35.1364538,10.6812276 Z M37.6621326,7.55646897 L40.1754176,7.55646897 L40.1754176,7.28488276 L39.782576,7.28488276 C38.9942638,7.28488276 38.6243317,6.99774483 38.6243317,6.38326207 C38.6243317,6.18336552 38.7013226,5.74564138 38.8444131,5.29426207 L38.9942638,4.82012414 L38.7903317,4.75071034 L37.6621326,7.55646897 Z M40.5922955,0.329848276 L40.4540873,0.329848276 L39.6515036,2.30264138 L41.9826394,7.93198621 C42.3897525,8.92084828 42.495662,9.28915862 42.495662,9.64191724 C42.495662,10.1805379 42.1723,10.437331 41.4887706,10.437331 L41.4887706,10.6812276 L45.7503136,10.6812276 L45.7503136,10.437331 C44.9128023,10.437331 44.5931959,10.0375379 43.6693045,7.78784828 L40.5922955,0.329848276 Z M48.0078385,10.6812276 L52.1567118,10.6812276 L52.1567118,10.437331 C51.2328204,10.437331 51.0022231,10.0970897 51.0022231,8.73271034 L51.0022231,2.54767586 C51.0022231,1.18974483 51.2425851,0.843434483 52.1856303,0.843434483 L52.1856303,0.599158621 L48.0078385,0.599158621 L48.0078385,0.843434483 C49.1675851,0.843434483 49.4090738,1.15446897 49.4090738,2.64629655 L49.4090738,8.64926207 C49.4090738,10.1259172 49.1675851,10.437331 48.0078385,10.437331 L48.0078385,10.6812276 Z M53.8989606,10.6812276 L58.211205,10.6812276 L58.211205,10.437331 C57.363929,10.437331 56.6766439,9.96812414 55.735852,8.56202069 L52.9690602,4.42450345 L51.9524041,5.68874483 L53.8306077,8.48995172 C54.2054222,9.04867586 54.5670919,9.60512414 54.5670919,9.90857241 C54.5670919,10.2397103 54.3158385,10.437331 53.8989606,10.437331 L53.8989606,10.6812276 Z M53.9218701,3.22702069 L54.4563,2.60457241 C55.5953905,1.28836552 56.3198566,0.843434483 57.2005579,0.843434483 L57.2005579,0.599158621 L53.7509878,0.599158621 L53.7509878,0.843434483 C54.2857932,0.843434483 54.57911,1.06077931 54.57911,1.45791724 C54.57911,1.75757241 54.421748,2.15205517 54.1453317,2.54767586 L53.7645081,3.08667586 L53.9218701,3.22702069 Z M64.636757,10.9657103 C65.0547615,10.9657103 65.5185851,10.921331 65.7792276,10.8519172 L65.7518113,10.6671931 C63.191205,10.5636414 61.5717661,8.53395172 61.5717661,5.41184828 C61.5717661,3.62377931 62.1050692,2.20629655 63.1202231,1.27812414 L63.0578792,1.1301931 C61.1139516,1.80195172 59.9267887,3.61884828 59.9267887,5.95577931 C59.9267887,8.91591724 61.8395443,10.9657103 64.636757,10.9657103 L64.636757,10.9657103 Z M67.138024,10.3626069 C69.0977253,9.7064 70.3220692,7.86750345 70.3220692,5.48164138 C70.3220692,2.51998621 68.4333498,0.485365517 65.589567,0.485365517 C65.2278973,0.485365517 64.8553362,0.519503448 64.4636213,0.586641379 L64.4718837,0.757331034 C67.0985896,0.982262069 68.6639471,2.94481379 68.6639471,6.01267586 C68.6639471,7.82084828 68.1186258,9.30167586 67.069671,10.2249172 L67.138024,10.3626069 Z M79.2072005,6.65750345 L80.5686258,3.3484 C81.2604176,1.60964138 81.940567,0.814227586 82.7348882,0.814227586 L82.7348882,0.599158621 L79.3574267,0.586641379 L79.3574267,0.828262069 C80.2069561,0.876055172 80.4998973,1.11008966 80.4998973,1.74505517 C80.4998973,2.12550345 80.3785896,2.68574483 80.1600104,3.32033103 L79.0028928,6.57026207 L79.2072005,6.65750345 Z M77.3879606,10.9061586 L77.5430692,10.9061586 L78.3358882,8.97774483 L76.0363,3.3484 C75.715567,2.55298621 75.5811145,2.07126207 75.5811145,1.70333103 C75.5811145,1.14688276 75.8887027,0.863537931 76.5132683,0.843434483 L76.5132683,0.599158621 L72.2686258,0.599158621 L72.2686258,0.843434483 C73.1204086,0.843434483 73.4208611,1.22881379 74.3496348,3.5061931 L77.3879606,10.9061586 Z" id="Fill-1" fill="#000000" mask="url(#mask-2)"></path>
            </g>
        </g>
    </g>
</svg>